<?xml version="1.0" encoding="UTF-8"?>
<svg id="Layer_1" xmlns="http://www.w3.org/2000/svg" version="1.1" viewBox="0 0 1470.27 302.71">
  <!-- Generator: Adobe Illustrator 29.5.1, SVG Export Plug-In . SVG Version: 2.1.0 Build 141)  -->
  <defs>
    <style>
      .st0 {
        fill: #fff;
      }
    </style>
  </defs>
  <g>
    <path class="st0" d="M465.89,166.85l39.07,79.82,40.73-79.82h27.17l2.55,2.55v129.9h-23.77v-96.79l-39.21,82.19-9.26,3.77-44.92-86.8v97.64c-7.54-1.06-17.89,2.65-23.77-2.55v-127.35l2.55-2.55h28.87,0Z"/>
    <path class="st0" d="M833.51,258.55v-89.15c5.21-4.15,18.75-4.09,23.77,0v129.9c-7.8-1.02-19.4,2.52-25.6-2.41l-60.22-87.51c-6.6-4.52-.78,1.88-.78,2.47v84.9c-2.54,3.85-21.66,3.36-23.88,1.81l-1.35-2.04,1.35-128.92,23.02.97,63.69,89.98h0Z"/>
    <path class="st0" d="M941.84,165.66c98.56-9.54,103.36,144.71-2.26,135.4-75.08-6.62-80.7-127.36,2.26-135.4ZM943.51,187.71c-49.47,5.28-49.57,83.28-5.17,90.81,72.25,12.26,72.45-97.99,5.17-90.81h0Z"/>
    <path class="st0" d="M1385.37,221.19h61.13v-54.34c7.54,1.06,17.89-2.65,23.77,2.55v129.9h-23.77v-57.73h-58.58c-4.85,4.98-.94,14.76-.79,21.16.13,5.35.72,32.79-.8,34.98l-23.03,1.59v-132.45c5,.99,21.77-2.56,23.53,2.78l-1.45,51.56h-.01Z"/>
    <path class="st0" d="M724.83,299.29l-23.83-.77-12.89-29.56-53.44.82-11.68,28.7-23.8.81,50.9-131.62c6.12-.76,21.84-3.03,25.36,1.87l49.38,129.74h0ZM641.64,248.36h40.75l-21.21-50.95-19.54,50.95Z"/>
    <path class="st0" d="M1339.52,207.61h-24.62c-1.36,0-7.63-13.95-19.54-17.81-42.73-13.84-67.07,27.19-52.94,64.82,9.14,24.33,44.73,33.4,64.01,17.54,4.19-3.45,6.91-11.91,7.62-11.91h23.77c-6.85,39.07-57.8,50.7-89.45,34.27-38.16-19.82-46.14-76.8-17.56-108.17,30.9-33.91,97.25-26.75,108.71,21.26h0Z"/>
    <path class="st0" d="M409.01,200.81h-25.47c-.3,0-.48-3.93-1.88-5.7-12-15.24-47.01-11.53-40.21,11.3,4.15,13.94,57.39,14.98,67.11,41.54,7.74,21.15-3.15,44.38-24.65,50.87-29.34,8.85-70.3-1.08-70.98-36.96,1.71-2.34,18.98-2.5,21.44-.84,1.86,1.26,2.01,6.06,3.56,8.33,14.58,21.31,59.77,12.08,47.75-13.8-7.65-16.48-62.44-13.28-67.96-45.8-9.67-56.88,84.33-59.13,91.29-8.94Z"/>
    <path class="st0" d="M1083.14,268.74l3.54-2.39,32.92-97.82c2.4-2.89,23.93-2.84,24.65.92l-46.67,128.18-23.87,1.79-50.02-132.55,24.62,1.68,34.82,100.19h.01Z"/>
    <path class="st0" d="M1190.1,299.3h-23.77v-129.9c5.21-4.15,18.76-4.09,23.77,0v129.9Z"/>
  </g>
  <g>
    <path class="st0" d="M206.08,166.83c4.06,19.09,31.64,19.15,35.86-.02,58.59,15.16,68.63,96.05,14.83,125.1-53.98,29.15-114.96-22.53-97.02-80.34,6.39-20.59,25.16-39.86,46.33-44.74ZM217.72,186.14c-36.04,3.68-51.58,48.64-28.6,75.81,23.93,28.29,71.14,17.94,79.96-18.28,8.05-33.07-17.98-60.93-51.35-57.53h0Z"/>
    <g>
      <rect class="st0" x="224.55" y="75.89" width="5.72" height="45.39"/>
      <rect class="st0" x="219.76" y="121.27" width="14.9" height="18.68" rx="4.5" ry="4.5"/>
      <path class="st0" d="M224.68,147.63c.68,3.04,4.61,3.77,5.9,6.44,4.28,8.86-7.54,15.06-12.1,7.17-1.42-2.46-.71-7.18-4.05-7-6.59.36-1.01,11.98,3.38,14.46,13.15,7.41,26.15-8.37,16.01-19.71-.88-.98-3.21-2.37-3.46-3.05-.32-.85.13-4.93.1-6.65h-5.86c-.07,2.18-.34,6.45.08,8.36v-.02Z"/>
    </g>
    <g>
      <path class="st0" d="M119.5,129.75v150.11h-52.2c-.6-.39-.93-2.22-.93-2.78v-146.4l.93-.93h52.2ZM76.7,138.48c-.74.19-1.48,1.18-1.97,1.78l-.35,127.57c-.62,5.64,6.83,6.01,7.47,1.23v-124.22c.71-2.88-2.24-7.11-5.15-6.37h0ZM91.98,138.65c-.87.13-1.78,1.65-2.28,2.38l-.5,126.19c0,6.28,7.38,5.96,8.07-.01l.02-122.97c-.02-3.16-1.87-6.1-5.31-5.58h0ZM111.32,271.06l.79-3.22v-124.83c-.31-6.64-7.63-5.86-7.47.61l.49,126.21c1.04,2.27,4.28,2.52,6.19,1.23Z"/>
      <path class="st0" d="M133.09,302.71H52.17c-.03-6.1.27-13.85,7.25-15.92,18.9-.3,37.81-.1,56.71-.12,1.47,0,2.83-.69,4.3-.69,10.81,0,13.21,7.17,12.66,16.73Z"/>
      <path class="st0" d="M45.77,98.29c.98-.31,2.89.56,4.21.6,27.14.78,53.92-.24,80.96.02,4.5.04,8.81-3.21,6.5,4.62-1.36,4.61-4.66,5.98-9.04,7.02-23.53-1.42-49.63,2.07-72.86.07-3.05-.26-6.2-1.07-8.31-3.42-1.5-1.67-4.23-8.04-1.46-8.91Z"/>
      <path class="st0" d="M124.44,117.39c.19,2.19.15,4.01-1.87,5.24l-60.81.31c-1.97-.37-2.8-2.39-3.32-4.12l.83-1.42h65.17Z"/>
      <g>
        <rect class="st0" x="98.39" y="77.24" width="6.9" height="14.74"/>
        <rect class="st0" x="78" y="77.24" width="6.9" height="14.74"/>
        <path class="st0" d="M15.26,47.44c18.5-12.66,37.14-25.2,56.11-37.17C74.4,8.35,86.47,0,88.91,0l99.13,47.45-20.22.14L94.49,9.28l8.33,38.31h-7.41l-5.86-25.95-4.64,25.95h-6.79l5.86-37.07L28.07,47.59s-12.81-.15-12.81-.15Z"/>
      </g>
    </g>
    <g>
      <path class="st0" d="M254.04,47.48l-10.33-.03-18.84.14H68.88l-11.94-.15c-17.13,1.44-35.91-1.4-52.84.13-2.73.25-3.41.31-3.72,3.41-.54,5.48-.47,16.71-.02,22.27.11,1.33.35,3.99,2.04,3.99h278.72s-27.08-29.76-27.08-29.76ZM34.34,70.45H6.71v-16.06h27.63v16.06ZM40.67,70.44c-.29-.22.58-.79.58-.92v-14.21c0-.19-.73-.47-.58-.93h17.84l-14.65,15.48-3.2.58h0ZM52.18,70.45l15.25-16.05,15.83,16.05h-31.08ZM76.93,54.38h29.93l-14.18,15.38c-1.47.27-13.72-13.34-15.75-15.38ZM101.11,70.45l15.25-16.05,15.25,16.05h-30.51.01ZM140.53,69.84l-14.67-15.45h27.63l-12.96,15.45ZM148.31,70.45l14.6-15.4,15.33,15.4h-29.93ZM171.91,54.38h28.2l-13.53,15.43-14.68-15.43h.01ZM194.93,70.45l14.1-16.05,15.25,16.05h-29.36,0ZM218.53,54.38h27.05l-12.95,15.43s-14.1-15.43-14.1-15.43ZM255,55.05l15.33,15.4h-29.36c4.58-5.17,8.71-11.27,14.02-15.4h.01Z"/>
      <path class="st0" d="M312.14,71.71l-23.11-24-38.48-.25,30.38,29.77h29.52c1.69,0,3.6-4.06,1.7-5.53h-.01ZM279.94,70.45l-14.1-16.06h21.01l15.25,16.06h-22.16Z"/>
    </g>
  </g>
</svg>